<svg data-v-fde0c5aa="" xmlns="http://www.w3.org/2000/svg" viewBox="0 0 300 300" class="font"><!----><defs data-v-fde0c5aa=""><!----></defs><rect data-v-fde0c5aa="" fill="transparent" x="0" y="0" width="300px" height="300px" class="logo-background-square"></rect><defs data-v-fde0c5aa=""><!----></defs><g data-v-fde0c5aa="" id="786410a9-279c-48ed-ad7f-9534bb4ed7a1" fill="#487DBE" transform="matrix(2.704696204446753,0,0,2.704696204446753,38.106712689129765,127.17236387970546)"><path d="M4.07 10.57L4.07 10.57L4.07 9.17L5.94 9.17L5.94 10.35L5.94 10.35Q5.94 12.19 4.20 12.19L4.20 12.19L2.44 12.19L2.44 12.19Q0.70 12.19 0.70 10.35L0.70 10.35L0.70 4.70L0.70 4.70Q0.70 2.86 2.44 2.86L2.44 2.86L4.20 2.86L4.20 2.86Q5.94 2.86 5.94 4.70L5.94 4.70L5.94 5.56L4.07 5.56L4.07 4.47L4.07 4.47Q4.07 4.35 4.00 4.27L4.00 4.27L4.00 4.27Q3.92 4.19 3.81 4.19L3.81 4.19L2.93 4.19L2.93 4.19Q2.81 4.19 2.74 4.27L2.74 4.27L2.74 4.27Q2.66 4.35 2.66 4.47L2.66 4.47L2.66 10.57L2.66 10.57Q2.66 10.68 2.74 10.77L2.74 10.77L2.74 10.77Q2.81 10.85 2.93 10.85L2.93 10.85L3.81 10.85L3.81 10.85Q3.92 10.85 4.00 10.77L4.00 10.77L4.00 10.77Q4.07 10.68 4.07 10.57ZM10.51 5.73L10.51 5.22L12.10 5.22L12.10 12.05L10.51 12.05L10.51 11.55L10.51 11.55Q10.08 12.19 9.07 12.19L9.07 12.19L8.78 12.19L8.78 12.19Q7.04 12.19 7.04 10.35L7.04 10.35L7.04 6.93L7.04 6.93Q7.04 5.08 8.78 5.08L8.78 5.08L9.07 5.08L9.07 5.08Q10.08 5.08 10.51 5.73L10.51 5.73ZM10.22 10.57L10.22 10.57L10.22 6.71L10.22 6.71Q10.22 6.59 10.14 6.51L10.14 6.51L10.14 6.51Q10.07 6.43 9.95 6.43L9.95 6.43L9.18 6.43L9.18 6.43Q9.07 6.43 9.00 6.51L9.00 6.51L9.00 6.51Q8.92 6.59 8.92 6.71L8.92 6.71L8.92 10.57L8.92 10.57Q8.92 10.68 9.00 10.77L9.00 10.77L9.00 10.77Q9.07 10.85 9.18 10.85L9.18 10.85L9.95 10.85L9.95 10.85Q10.07 10.85 10.14 10.77L10.14 10.77L10.14 10.77Q10.22 10.68 10.22 10.57ZM19.40 5.08L19.53 5.08L19.53 5.08Q21.27 5.08 21.27 6.93L21.27 6.93L21.27 12.05L19.39 12.05L19.39 6.71L19.39 6.71Q19.39 6.59 19.31 6.51L19.31 6.51L19.31 6.51Q19.24 6.43 19.12 6.43L19.12 6.43L18.52 6.43L18.52 6.43Q18.41 6.43 18.33 6.51L18.33 6.51L18.33 6.51Q18.26 6.59 18.26 6.71L18.26 6.71L18.26 12.05L16.38 12.05L16.38 6.71L16.38 6.71Q16.38 6.59 16.30 6.51L16.30 6.51L16.30 6.51Q16.23 6.43 16.11 6.43L16.11 6.43L15.51 6.43L15.51 6.43Q15.40 6.43 15.32 6.51L15.32 6.51L15.32 6.51Q15.25 6.59 15.25 6.71L15.25 6.71L15.25 12.05L13.37 12.05L13.37 5.22L15.08 5.22L15.08 5.57L15.08 5.57Q15.51 5.08 16.39 5.08L16.39 5.08L16.52 5.08L16.52 5.08Q17.56 5.08 17.96 5.73L17.96 5.73L17.96 5.73Q18.40 5.08 19.40 5.08L19.40 5.08ZM25.94 12.19L25.94 12.19L25.65 12.19L25.65 12.19Q24.93 12.19 24.50 11.86L24.50 11.86L24.50 14.28L22.62 14.28L22.62 5.22L24.21 5.22L24.21 5.73L24.21 5.73Q24.64 5.08 25.65 5.08L25.65 5.08L25.94 5.08L25.94 5.08Q27.68 5.08 27.68 6.93L27.68 6.93L27.68 10.35L27.68 10.35Q27.68 12.19 25.94 12.19ZM24.50 6.71L24.50 6.71L24.50 10.57L24.50 10.57Q24.50 10.68 24.58 10.77L24.58 10.77L24.58 10.77Q24.65 10.85 24.77 10.85L24.77 10.85L25.54 10.85L25.54 10.85Q25.65 10.85 25.73 10.77L25.73 10.77L25.73 10.77Q25.80 10.68 25.80 10.57L25.80 10.57L25.80 6.71L25.80 6.71Q25.80 6.59 25.73 6.51L25.73 6.51L25.73 6.51Q25.65 6.43 25.54 6.43L25.54 6.43L24.77 6.43L24.77 6.43Q24.65 6.43 24.58 6.51L24.58 6.51L24.58 6.51Q24.50 6.59 24.50 6.71ZM30.73 7.77L32.17 7.77L32.17 7.77Q33.91 7.77 33.91 9.62L33.91 9.62L33.91 10.35L33.91 10.35Q33.91 12.19 32.17 12.19L32.17 12.19L30.62 12.19L30.62 12.19Q28.88 12.19 28.88 10.35L28.88 10.35L28.88 9.91L30.62 9.91L30.62 10.53L30.62 10.53Q30.62 10.64 30.70 10.72L30.70 10.72L30.70 10.72Q30.77 10.81 30.88 10.81L30.88 10.81L32.03 10.81L32.03 10.81Q32.14 10.81 32.22 10.72L32.22 10.72L32.22 10.72Q32.30 10.64 32.30 10.53L32.30 10.53L32.30 9.69L32.30 9.69Q32.30 9.58 32.22 9.49L32.22 9.49L32.22 9.49Q32.14 9.41 32.03 9.41L32.03 9.41L30.59 9.41L30.59 9.41Q28.85 9.41 28.85 7.56L28.85 7.56L28.85 6.93L28.85 6.93Q28.85 5.08 30.59 5.08L30.59 5.08L32.06 5.08L32.06 5.08Q33.80 5.08 33.80 6.93L33.80 6.93L33.80 7.18L32.06 7.18L32.06 6.75L32.06 6.75Q32.06 6.64 31.98 6.55L31.98 6.55L31.98 6.55Q31.91 6.47 31.79 6.47L31.79 6.47L30.73 6.47L30.73 6.47Q30.62 6.47 30.54 6.55L30.54 6.55L30.54 6.55Q30.46 6.64 30.46 6.75L30.46 6.75L30.46 7.49L30.46 7.49Q30.46 7.60 30.54 7.69L30.54 7.69L30.54 7.69Q30.62 7.77 30.73 7.77L30.73 7.77ZM36.92 4.37L36.92 4.37L36.92 4.37Q36.62 4.66 36.20 4.66L36.20 4.66L36.20 4.66Q35.78 4.66 35.48 4.36L35.48 4.36L35.48 4.36Q35.17 4.06 35.17 3.63L35.17 3.63L35.17 3.63Q35.17 3.21 35.48 2.90L35.48 2.90L35.48 2.90Q35.78 2.60 36.20 2.60L36.20 2.60L36.20 2.60Q36.62 2.60 36.92 2.90L36.92 2.90L36.92 2.90Q37.23 3.21 37.23 3.64L37.23 3.64L37.23 3.64Q37.23 4.07 36.92 4.37ZM37.14 12.05L35.27 12.05L35.27 5.22L37.14 5.22L37.14 12.05ZM40.95 10.98L40.95 10.98L41.51 10.98L41.51 12.19L40.19 12.19L40.19 12.19Q38.46 12.19 38.46 10.35L38.46 10.35L38.46 3.74L40.33 3.74L40.33 5.22L41.51 5.22L41.51 6.58L40.33 6.58L40.33 10.30L40.33 10.30Q40.33 10.70 40.49 10.84L40.49 10.84L40.49 10.84Q40.64 10.98 40.95 10.98ZM44.23 5.08L45.81 5.08L45.81 5.08Q47.54 5.08 47.54 6.93L47.54 6.93L47.54 9.14L44.37 9.14L44.37 10.57L44.37 10.57Q44.37 10.68 44.44 10.77L44.44 10.77L44.44 10.77Q44.52 10.85 44.63 10.85L44.63 10.85L45.40 10.85L45.40 10.85Q45.51 10.85 45.59 10.77L45.59 10.77L45.59 10.77Q45.67 10.68 45.67 10.57L45.67 10.57L45.67 9.81L47.54 9.81L47.54 10.35L47.54 10.35Q47.54 12.19 45.81 12.19L45.81 12.19L44.23 12.19L44.23 12.19Q42.49 12.19 42.49 10.35L42.49 10.35L42.49 6.93L42.49 6.93Q42.49 5.08 44.23 5.08L44.23 5.08ZM44.37 6.65L44.37 7.91L45.67 7.91L45.67 6.65L45.67 6.65Q45.67 6.54 45.59 6.45L45.59 6.45L45.59 6.45Q45.51 6.37 45.40 6.37L45.40 6.37L44.63 6.37L44.63 6.37Q44.52 6.37 44.44 6.45L44.44 6.45L44.44 6.45Q44.37 6.54 44.37 6.65L44.37 6.65ZM50.36 7.77L51.80 7.77L51.80 7.77Q53.54 7.77 53.54 9.62L53.54 9.62L53.54 10.35L53.54 10.35Q53.54 12.19 51.80 12.19L51.80 12.19L50.25 12.19L50.25 12.19Q48.51 12.19 48.51 10.35L48.51 10.35L48.51 9.91L50.25 9.91L50.25 10.53L50.25 10.53Q50.25 10.64 50.32 10.72L50.32 10.72L50.32 10.72Q50.40 10.81 50.51 10.81L50.51 10.81L51.66 10.81L51.66 10.81Q51.77 10.81 51.85 10.72L51.85 10.72L51.85 10.72Q51.93 10.64 51.93 10.53L51.93 10.53L51.93 9.69L51.93 9.69Q51.93 9.58 51.85 9.49L51.85 9.49L51.85 9.49Q51.77 9.41 51.66 9.41L51.66 9.41L50.22 9.41L50.22 9.41Q48.48 9.41 48.48 7.56L48.48 7.56L48.48 6.93L48.48 6.93Q48.48 5.08 50.22 5.08L50.22 5.08L51.69 5.08L51.69 5.08Q53.42 5.08 53.42 6.93L53.42 6.93L53.42 7.18L51.69 7.18L51.69 6.75L51.69 6.75Q51.69 6.64 51.61 6.55L51.61 6.55L51.61 6.55Q51.53 6.47 51.42 6.47L51.42 6.47L50.36 6.47L50.36 6.47Q50.25 6.47 50.17 6.55L50.17 6.55L50.17 6.55Q50.09 6.64 50.09 6.75L50.09 6.75L50.09 7.49L50.09 7.49Q50.09 7.60 50.17 7.69L50.17 7.69L50.17 7.69Q50.25 7.77 50.36 7.77L50.36 7.77ZM57.54 3.00L59.50 3.00L59.50 12.05L57.54 12.05L57.54 3.00ZM62.76 6.71L62.76 12.05L60.89 12.05L60.89 5.22L62.59 5.22L62.59 5.57L62.59 5.57Q63.03 5.08 63.91 5.08L63.91 5.08L64.20 5.08L64.20 5.08Q65.94 5.08 65.94 6.93L65.94 6.93L65.94 12.05L64.06 12.05L64.06 6.71L64.06 6.71Q64.06 6.59 63.99 6.51L63.99 6.51L63.99 6.51Q63.91 6.43 63.80 6.43L63.80 6.43L63.03 6.43L63.03 6.43Q62.92 6.43 62.84 6.51L62.84 6.51L62.84 6.51Q62.76 6.59 62.76 6.71L62.76 6.71ZM68.95 5.08L69.24 5.08L69.24 5.08Q69.96 5.08 70.39 5.42L70.39 5.42L70.39 3.00L72.27 3.00L72.27 12.05L70.69 12.05L70.69 11.55L70.69 11.55Q70.25 12.19 69.24 12.19L69.24 12.19L68.95 12.19L68.95 12.19Q67.21 12.19 67.21 10.35L67.21 10.35L67.21 6.93L67.21 6.93Q67.21 5.08 68.95 5.08L68.95 5.08ZM70.39 10.57L70.39 10.57L70.39 6.71L70.39 6.71Q70.39 6.59 70.31 6.51L70.31 6.51L70.31 6.51Q70.24 6.43 70.13 6.43L70.13 6.43L69.36 6.43L69.36 6.43Q69.24 6.43 69.17 6.51L69.17 6.51L69.17 6.51Q69.09 6.59 69.09 6.71L69.09 6.71L69.09 10.57L69.09 10.57Q69.09 10.68 69.17 10.77L69.17 10.77L69.17 10.77Q69.24 10.85 69.36 10.85L69.36 10.85L70.13 10.85L70.13 10.85Q70.24 10.85 70.31 10.77L70.31 10.77L70.31 10.77Q70.39 10.68 70.39 10.57ZM75.45 4.37L75.45 4.37L75.45 4.37Q75.15 4.66 74.73 4.66L74.73 4.66L74.73 4.66Q74.31 4.66 74.00 4.36L74.00 4.36L74.00 4.36Q73.70 4.06 73.70 3.63L73.70 3.63L73.70 3.63Q73.70 3.21 74.00 2.90L74.00 2.90L74.00 2.90Q74.31 2.60 74.73 2.60L74.73 2.60L74.73 2.60Q75.15 2.60 75.45 2.90L75.45 2.90L75.45 2.90Q75.75 3.21 75.75 3.64L75.75 3.64L75.75 3.64Q75.75 4.07 75.45 4.37ZM75.67 12.05L73.79 12.05L73.79 5.22L75.67 5.22L75.67 12.05ZM80.46 5.73L80.46 5.22L82.04 5.22L82.04 12.05L80.46 12.05L80.46 11.55L80.46 11.55Q80.02 12.19 79.02 12.19L79.02 12.19L78.72 12.19L78.72 12.19Q76.99 12.19 76.99 10.35L76.99 10.35L76.99 6.93L76.99 6.93Q76.99 5.08 78.72 5.08L78.72 5.08L79.02 5.08L79.02 5.08Q80.02 5.08 80.46 5.73L80.46 5.73ZM80.16 10.57L80.16 10.57L80.16 6.71L80.16 6.71Q80.16 6.59 80.09 6.51L80.09 6.51L80.09 6.51Q80.01 6.43 79.90 6.43L79.90 6.43L79.13 6.43L79.13 6.43Q79.02 6.43 78.94 6.51L78.94 6.51L78.94 6.51Q78.86 6.59 78.86 6.71L78.86 6.71L78.86 10.57L78.86 10.57Q78.86 10.68 78.94 10.77L78.94 10.77L78.94 10.77Q79.02 10.85 79.13 10.85L79.13 10.85L79.90 10.85L79.90 10.85Q80.01 10.85 80.09 10.77L80.09 10.77L80.09 10.77Q80.16 10.68 80.16 10.57Z"></path></g><!----><!----></svg>